<svg xmlns="http://www.w3.org/2000/svg" viewBox="0 0 24 24" fill="#334155" width="24px" height="24px"><path d="M21.9 8.89l-1.05-4.37c-.18-.74-.86-1.28-1.63-1.28h-5.4c-.69 0-1.31.42-1.56 1.05l-1.5 3.75H4.65c-.63 0-1.2.39-1.43.98l-1.07 2.68C2.06 11.94 2 12.21 2 12.48V17c0 1.1.9 2 2 2h1c0 1.66 1.34 3 3 3s3-1.34 3-3h6c0 1.66 1.34 3 3 3s3-1.34 3-3h1c1.1 0 2-.9 2-2v-5.27c0-.98-.53-1.89-1.38-2.38l-.72-.46zM5 13c-.55 0-1-.45-1-1s.45-1 1-1 1 .45 1 1-.45 1-1 1zm11 0c-.55 0-1-.45-1-1s.45-1 1-1 1 .45 1 1-.45 1-1 1z"/></svg>
